<svg xmlns="http://www.w3.org/2000/svg" viewBox="0 0 165 44" width="165" height="44">

  <!-- Opening bracket -->
  <path d="M 18,3 L 10,3 L 10,41 L 18,41"
        fill="none" stroke="#f5a524" stroke-width="3.5" stroke-linecap="square" stroke-linejoin="miter"/>

  <!-- TECH: small digital blocks, baseline at y=36 -->
  <g fill="#f5a524">
    <!-- T -->
    <rect x="22" y="21" width="10" height="2"/>
    <rect x="26" y="23" width="2"  height="13"/>
    <!-- E -->
    <rect x="34" y="21" width="2"  height="15"/>
    <rect x="36" y="21" width="8"  height="2"/>
    <rect x="36" y="28" width="6"  height="2"/>
    <rect x="36" y="34" width="8"  height="2"/>
    <!-- C -->
    <rect x="46" y="21" width="2"  height="15"/>
    <rect x="48" y="21" width="8"  height="2"/>
    <rect x="48" y="34" width="8"  height="2"/>
    <!-- H -->
    <rect x="58" y="21" width="2"  height="15"/>
    <rect x="66" y="21" width="2"  height="15"/>
    <rect x="60" y="28" width="6"  height="2"/>
  </g>

  <!-- Afrik: big and bold -->
  <text x="71" y="36"
        font-family="'Helvetica Neue', Helvetica, Arial, sans-serif"
        font-size="28" font-weight="700"
        textLength="76" lengthAdjust="spacingAndGlyphs"
        fill="#f5a524">AFRIK</text>

  <!-- Closing bracket: x = 71 + 76 + 4 = 151 -->
  <path d="M 151,3 L 159,3 L 159,41 L 151,41"
        fill="none" stroke="#f5a524" stroke-width="3.5" stroke-linecap="square" stroke-linejoin="miter"/>

</svg>