<svg xmlns="http://www.w3.org/2000/svg" viewBox="0 0 82 44" role="img" aria-label="TechAfrik logo">

  <!-- ── NEURON ICON — spans y=10 to y=34, same height as text ── -->
  <!-- L1→L2 connections -->
  <g stroke="#f5a524" stroke-width="0.8" opacity="0.4">
    <line x1="5"  y1="15" x2="18" y2="10"/>
    <line x1="5"  y1="15" x2="18" y2="22"/>
    <line x1="5"  y1="15" x2="18" y2="34"/>
    <line x1="5"  y1="29" x2="18" y2="10"/>
    <line x1="5"  y1="29" x2="18" y2="22"/>
    <line x1="5"  y1="29" x2="18" y2="34"/>
  </g>
  <!-- L2→L3 connections -->
  <g stroke="#f5a524" stroke-width="0.8" opacity="0.4">
    <line x1="18" y1="10" x2="31" y2="15"/>
    <line x1="18" y1="10" x2="31" y2="29"/>
    <line x1="18" y1="22" x2="31" y2="15"/>
    <line x1="18" y1="22" x2="31" y2="29"/>
    <line x1="18" y1="34" x2="31" y2="15"/>
    <line x1="18" y1="34" x2="31" y2="29"/>
  </g>
  <!-- Nodes -->
  <g fill="#f5a524">
    <circle cx="5"  cy="15" r="2"/>
    <circle cx="5"  cy="29" r="2"/>
    <circle cx="18" cy="10" r="2"/>
    <circle cx="18" cy="22" r="2.4"/>
    <circle cx="18" cy="34" r="2"/>
    <circle cx="31" cy="15" r="2"/>
    <circle cx="31" cy="29" r="2"/>
  </g>

  <!-- ── TECH — white wireframe, top half (y=10 to y=21) ── -->
  <g fill="none" stroke="#f5a524" stroke-width="1.5" stroke-linecap="square" stroke-linejoin="miter">
    <!-- T -->
    <line x1="40" y1="10" x2="48" y2="10"/>
    <line x1="44" y1="10" x2="44" y2="21"/>
    <!-- E -->
    <line x1="51" y1="10" x2="51" y2="21"/>
    <line x1="51" y1="10" x2="59" y2="10"/>
    <line x1="51" y1="15" x2="57" y2="15"/>
    <line x1="51" y1="21" x2="59" y2="21"/>
    <!-- C -->
    <polyline points="69,10 61,10 61,21 69,21"/>
    <!-- H -->
    <line x1="71" y1="10" x2="71" y2="21"/>
    <line x1="79" y1="10" x2="79" y2="21"/>
    <line x1="71" y1="15" x2="79" y2="15"/>
  </g>

  <!-- ── AFRIK — amber wireframe, bottom half (y=23 to y=34) ── -->
  <g fill="none" stroke="#f5a524" stroke-width="1.5" stroke-linecap="square" stroke-linejoin="miter">
    <!-- A -->
    <polyline points="40,34 43.5,23 47,34"/>
    <line x1="41.5" y1="30" x2="45.5" y2="30"/>
    <!-- F -->
    <line x1="49"   y1="23" x2="49"   y2="34"/>
    <line x1="49"   y1="23" x2="55"   y2="23"/>
    <line x1="49"   y1="28" x2="53"   y2="28"/>
    <!-- R -->
    <line x1="57"   y1="23" x2="57"   y2="34"/>
    <polyline points="57,23 63,23 64.5,26 63,29 57,29"/>
    <line x1="62"   y1="29" x2="65"   y2="34"/>
    <!-- I -->
    <line x1="68"   y1="23" x2="68"   y2="34"/>
    <line x1="66"   y1="23" x2="70"   y2="23"/>
    <line x1="66"   y1="34" x2="70"   y2="34"/>
    <!-- K -->
    <line x1="72"   y1="23" x2="72"   y2="34"/>
    <line x1="79"   y1="23" x2="72"   y2="28.5"/>
    <line x1="72"   y1="28.5" x2="79" y2="34"/>
  </g>

</svg>
