<svg xmlns="http://www.w3.org/2000/svg" viewBox="0 0 1000 500">
  <g fill="white" stroke="none">

    <!-- Greenland -->
    <path d="M318,20 C340,14 375,14 415,22 C445,28 460,40 452,58 C444,72 420,82 395,82 C368,82 342,74 328,62 C314,50 308,34 318,20 Z"/>

    <!-- Iceland -->
    <path d="M446,67 C452,60 462,58 472,62 C482,66 484,75 478,82 C472,89 460,90 452,85 C444,80 442,73 446,67 Z"/>

    <!-- North America -->
    <path d="M55,130 C68,108 85,92 110,80 C135,68 162,65 192,66 C222,67 252,72 278,82 C296,90 308,104 315,120 C320,134 318,150 310,164 C302,178 288,188 278,198 C268,208 260,220 250,228 C242,234 232,236 222,232 C212,228 205,220 198,212 C190,204 182,198 172,198 C162,198 152,204 146,212 C138,220 136,230 130,238 C120,222 112,205 104,188 C96,171 86,156 76,140 Z"/>

    <!-- Central America -->
    <path d="M198,212 C210,206 224,204 238,208 C252,212 262,222 268,236 C272,247 270,258 262,264 C254,270 242,268 232,262 C222,256 214,246 208,234 C202,222 198,218 198,212 Z"/>

    <!-- Cuba -->
    <path d="M264,208 C272,204 282,203 290,207 C298,211 300,218 295,224 C290,230 280,232 272,228 C264,224 260,216 264,208 Z"/>

    <!-- South America -->
    <path d="M268,248 C278,236 292,228 308,224 C326,220 345,222 362,232 C378,242 390,258 398,276 C406,292 408,310 404,328 C399,346 388,362 375,375 C362,388 347,398 333,405 C320,412 308,412 298,405 C288,396 283,382 278,367 C272,350 266,332 262,313 C258,294 260,272 268,248 Z"/>

    <!-- Scandinavia -->
    <path d="M506,100 C514,84 524,70 536,58 C546,48 558,43 568,47 C576,51 578,62 574,74 C570,86 560,96 551,106 C542,116 532,123 522,124 C512,126 504,116 506,100 Z"/>

    <!-- Europe -->
    <path d="M474,148 C482,136 488,124 496,112 C504,100 514,92 524,88 C534,84 545,84 554,90 C562,96 566,106 565,118 C564,130 558,141 550,149 C541,157 530,161 518,160 C506,159 494,154 484,150 Z"/>

    <!-- UK -->
    <path d="M484,107 C490,100 498,97 504,101 C510,105 510,115 505,121 C500,127 490,127 485,121 Z"/>

    <!-- Ireland -->
    <path d="M476,112 C482,106 490,106 493,113 C496,120 490,128 482,128 C475,128 470,120 476,112 Z"/>

    <!-- Africa -->
    <path d="M474,148 C492,140 514,137 536,138 C558,139 578,146 594,158 C608,169 616,184 618,200 C620,216 616,232 610,247 C604,262 594,276 586,291 C578,306 572,322 568,340 C563,358 560,376 554,390 C547,404 536,413 522,414 C508,415 494,408 482,398 C470,388 461,373 455,356 C449,339 447,320 448,301 C449,282 453,264 455,246 C457,228 457,210 460,193 C463,176 468,162 474,148 Z"/>

    <!-- Arabian Peninsula -->
    <path d="M594,158 C606,150 622,144 638,145 C654,146 666,154 672,166 C678,178 675,193 665,203 C655,213 640,217 626,214 C612,211 601,202 596,189 C591,176 589,166 594,158 Z"/>

    <!-- Novaya Zemlya -->
    <path d="M652,32 C658,26 666,24 672,30 C678,36 676,46 668,50 C660,54 652,48 652,40 Z"/>

    <!-- Russia / Siberia (north coast) -->
    <path d="M575,48 C608,40 648,34 692,30 C736,26 780,26 820,30 C860,34 896,42 924,54 C940,62 952,72 952,84 C952,96 938,104 920,108 L 900,105 C886,92 866,82 840,74 C814,66 784,62 752,60 C720,58 688,58 660,62 C632,66 608,74 588,84 L 568,78 C568,66 570,56 575,48 Z"/>

    <!-- Asia (main) -->
    <path d="M568,78 C588,84 608,74 632,66 C656,58 688,56 720,58 C752,60 782,66 808,76 C832,86 852,100 865,116 C875,130 878,146 872,160 C866,174 852,184 836,188 C820,192 802,188 786,180 C770,172 756,160 742,152 C728,144 712,140 696,142 C680,144 666,152 656,163 C645,174 638,188 635,202 C626,195 615,190 603,188 C591,186 579,188 570,195 C562,182 556,168 552,154 C548,140 548,126 552,112 C556,98 562,88 568,78 Z"/>

    <!-- Indian Subcontinent -->
    <path d="M696,142 C710,132 726,128 740,132 C754,136 764,148 768,163 C772,178 768,195 758,208 C748,221 733,228 718,226 C703,224 692,213 687,199 C682,185 682,168 696,142 Z"/>

    <!-- SE Asia mainland -->
    <path d="M808,148 C822,140 838,136 852,140 C866,144 875,156 875,170 C875,184 864,196 850,202 C836,208 820,206 808,196 C796,186 793,170 808,148 Z"/>

    <!-- Malay Peninsula -->
    <path d="M845,202 C850,210 852,222 848,234 C844,246 834,253 824,250 C814,247 808,236 810,224 C812,212 820,205 832,203 Z"/>

    <!-- Borneo -->
    <path d="M840,238 C852,228 868,224 882,228 C896,232 902,246 897,260 C892,274 876,281 862,276 C848,271 838,258 840,238 Z"/>

    <!-- Sumatra -->
    <path d="M764,258 C774,248 787,243 800,248 C812,253 815,266 808,279 C801,292 784,297 772,290 C760,283 756,268 764,258 Z"/>

    <!-- Java (slim) -->
    <path d="M800,282 C810,276 822,275 832,280 C842,285 844,296 837,303 C830,310 816,310 806,303 Z"/>

    <!-- Philippines -->
    <path d="M874,198 C882,192 892,191 898,197 C904,203 902,213 895,218 C888,223 878,221 873,214 Z"/>

    <!-- Japan Honshu -->
    <path d="M890,130 C898,122 908,120 914,126 C920,132 918,144 910,150 C902,156 892,154 887,146 Z"/>

    <!-- Japan Hokkaido -->
    <path d="M898,114 C906,108 915,108 919,115 C923,122 918,132 909,134 C901,136 895,128 898,114 Z"/>

    <!-- Korea -->
    <path d="M858,148 C864,142 873,141 878,147 C883,153 880,163 873,167 C866,171 857,167 855,160 Z"/>

    <!-- Taiwan -->
    <path d="M870,183 C875,178 882,177 886,183 C890,189 887,198 880,200 C873,202 867,196 870,183 Z"/>

    <!-- Sri Lanka -->
    <path d="M730,234 C735,229 742,229 746,235 C750,241 747,250 740,252 C733,254 726,248 727,241 Z"/>

    <!-- Papua New Guinea -->
    <path d="M916,254 C926,246 940,243 952,248 C964,253 967,265 961,276 C955,287 940,292 928,287 C916,282 910,270 916,254 Z"/>

    <!-- Australia -->
    <path d="M820,295 C838,278 860,268 884,268 C908,268 930,278 946,296 C960,312 965,333 960,353 C955,373 942,389 925,398 C908,407 888,408 870,400 C852,392 838,377 830,359 C821,341 818,320 820,295 Z"/>

    <!-- Tasmania -->
    <path d="M874,406 C880,400 890,399 896,405 C902,411 900,421 892,425 C884,429 874,422 874,413 Z"/>

    <!-- New Zealand N Island -->
    <path d="M958,338 C966,330 977,330 982,338 C987,346 983,358 974,362 C965,366 956,358 958,345 Z"/>

    <!-- New Zealand S Island -->
    <path d="M957,364 C965,358 975,358 980,366 C985,374 980,385 971,388 C962,391 954,383 957,370 Z"/>

    <!-- Madagascar -->
    <path d="M610,296 C618,283 630,277 640,281 C650,285 653,298 647,314 C641,330 627,340 616,337 C605,334 602,318 610,296 Z"/>

  </g>
</svg>
